<?xml version="1.0" encoding="UTF-8"?>
<!DOCTYPE svg PUBLIC "-//W3C//DTD SVG 1.1//EN" "http://www.w3.org/Graphics/SVG/1.1/DTD/svg11.dtd">
<!-- Creator: CorelDRAW -->
<svg xmlns="http://www.w3.org/2000/svg" xml:space="preserve" width="91.44mm" height="16.9332mm" version="1.1" style="shape-rendering:geometricPrecision; text-rendering:geometricPrecision; image-rendering:optimizeQuality; fill-rule:evenodd; clip-rule:evenodd"
viewBox="0 0 9144 1693.32"
 xmlns:xlink="http://www.w3.org/1999/xlink"
 xmlns:xodm="http://www.corel.com/coreldraw/odm/2003">
 <defs>
  <style type="text/css">
   <![CDATA[
    .fil0 {fill:white}
   ]]>
  </style>
 </defs>
 <g id="Camada_x0020_1">
  <metadata id="CorelCorpID_0Corel-Layer"/>
  <g id="_1367551136064">
   <path class="fil0" d="M3609.64 1550.33l224.26 0 0 -1059.48c11.92,13.72 63.36,114.27 76.26,135.63 27.25,45.13 49.62,93.32 77.02,138.41 31.53,51.9 57.37,108 88.97,160.01 2.56,4.2 3.68,7.03 6.16,11.49l38.21 67.75c40.46,72.86 82.35,145.96 121.28,219.52l211.89 0c2.29,-8.57 149.41,-270.56 150.84,-272.96l19.24 -33.73c27.43,-49.38 56.5,-98.7 82.42,-148.9 16.05,-31.06 35.2,-60.77 51.23,-91.8 27.66,-53.57 60.67,-105.5 88.27,-158.94 3.47,-6.73 8.33,-18.69 14.14,-22.95l0 1027.7c0,5.36 -0.12,10.7 -0.16,16.04 -0.05,6.58 -1.36,12.21 5.46,12.21l220.72 0 0 -1386.15 -270.17 0c-2.93,12.56 -28.12,51.37 -35.34,65.31 -2.59,5.02 -4.31,8.76 -7.38,13.81 -5.22,8.6 -9.48,17.06 -14.37,26.24l-58.7 105.52c-20.4,34.17 -38.52,69.88 -57.82,104.64l-73.02 131.81c-5.05,9.48 -8.9,17.09 -14.14,26.47l-29.16 52.07c-2.73,4.48 -4.32,8.31 -6.8,12.62 -2.78,4.81 -4.63,7.71 -7.56,13.63 -2.77,5.58 -4.23,7.29 -7.05,12.37l-110.1 198.92c-4.9,9.18 -9.15,17.64 -14.37,26.24 -6.09,10.01 -23.79,47.81 -30.36,52.63 -1.84,-7.88 -106.85,-195.88 -115.8,-210.87l-43.2 -78.63c-4.99,-8.63 -10.39,-17.65 -15.22,-27.17l-28.84 -52.39c-4.41,-8.54 -9.76,-17.02 -14.7,-25.91l-21.78 -40.02c-13.43,-26.68 -30.11,-51.45 -43.6,-78.24l-109.43 -197.82c-5.45,-9.8 -9.29,-17.82 -14.77,-27.61l-51.17 -91.85c-2.59,-4.98 -3.75,-11.77 -9.43,-11.77l-271.93 0 0 1386.15z"/>
   <path class="fil0" d="M7165.96 1032.95l3.05 58.76c3.02,22.85 1.7,28.23 6.54,57.03 3.9,23.18 9.94,54.18 17.11,76.47 21.73,67.65 51.18,132.08 97.45,186.84 19.8,23.43 38.51,43.62 62.47,62.91 12.01,9.66 22.06,17.95 35.16,26.64 69.32,45.92 147.58,70.13 227.94,73.45l38.36 0c32.71,-1.33 65.59,-6.05 98.18,-14.12 44.04,-10.92 92.55,-31.8 128.63,-58.55 38.52,-28.56 59.28,-47 88.55,-86.26l7.07 -8.82 0 143.03 211.9 0 0 -1032.99 -211.9 0 0 130.67 -20.66 -23.48c-3.25,-3.85 -3.36,-4.88 -7.12,-8.78 -109.31,-113.57 -260.49,-143.06 -415.01,-110.34 -88.07,18.64 -159.31,65.76 -221.59,128.03 -3.07,3.06 -4.96,4.86 -7.98,7.91 -39.68,40.1 -85.07,121.51 -101.74,171.97 -14.55,44.09 -16.85,52.17 -26.28,100.85 -3.33,17.17 -5.16,36.82 -6.73,56.85 -1.48,19.04 -3.4,41.51 -3.4,61.93z"/>
   <path class="fil0" d="M5283.62 1017.06c0,99.28 8.38,169.05 43.13,251.76 25.07,59.69 60.73,114.32 102.99,156.58 42.78,42.78 95.66,83.28 152.03,105.78 14.22,5.67 30.76,12.76 46.18,17.38 17.06,5.12 33.71,9.86 51.64,13.7 36.02,7.72 74.51,11.9 113.58,12.79l31.81 0c63.26,-1.42 126.69,-11.24 182.4,-28.47 19.96,-6.18 35.83,-11.93 54.7,-19.46 37.62,-15.01 85.68,-40.71 117.32,-64.57 10.87,-8.2 54.72,-41 61.28,-49.95 -4.17,-6.23 -8.62,-12.21 -13.73,-18.05 -5.69,-6.51 -9.47,-11.87 -15.07,-18.49l-89.51 -110.03c-5.62,3.77 -8.48,8.2 -13.7,12.79 -3.3,2.91 -3.72,2.66 -6.95,5.4 -14.55,12.3 -19.5,17.5 -37.61,29.5 -10.43,6.9 -20.69,14.38 -32.38,20.59 -70.86,37.69 -124.99,51.8 -221.9,51.8 -75.48,0 -156.13,-26.82 -207.96,-78.1 -26.98,-26.7 -43.59,-49.59 -61.03,-82 -10,-18.58 -23.63,-58.36 -28.37,-79.34 -2.44,-10.82 -3.99,-20.54 -6.36,-30.73l715.15 0c8.24,0 16.5,-0.06 24.73,0.02 24.36,0.23 19.41,8.7 19.41,-56.52 0,-154.18 -36.76,-323.71 -148.76,-435.71l-33.56 -31.78c-5.39,-5.05 -11.74,-9.13 -17.96,-13.82 -18.73,-14.08 -40.12,-27.37 -61.05,-37.84 -122.73,-61.31 -302.71,-64.44 -427.94,-4.14 -30.22,14.55 -55.61,28.43 -81.64,47.26 -26.35,19.07 -40.38,34.59 -51.95,43.41l-66.08 78.72c-59.4,87.3 -92.84,205.83 -92.84,311.52z"/>
   <path class="fil0" d="M1001.55 726.36l49.29 20.96c30.74,12.62 53.07,0.65 80.15,4.78 13.09,1.99 21.15,-1.45 31.73,3.36 5.85,2.66 -1.13,0.42 6.21,2.72 2.96,0.93 4.41,1.06 7.51,1.5 10.85,1.52 20.88,2.32 31.45,3.86 5.68,0.83 9.15,2.06 16.19,1.79 9.44,-0.37 7.11,-1.8 14.08,-3.65l20.97 -64.46c26.34,-72.87 46.05,-109.13 85.07,-174.5l46.24 -61.46c19.77,-21.25 31.35,-34.33 55.31,-52.41 104.77,-79 215.78,-63.52 312.12,14.34l56.42 51.29c24.08,25.02 107.11,126.76 124.9,158.13 9.95,8.99 107.93,157.48 114.14,174.32l95.43 157.71c10.9,18.29 20.54,34.83 31.58,53.19 34.5,57.36 90.23,154.11 128.25,210.78 57.73,86.06 84.77,130.08 154.62,205.6 7.82,8.45 8.54,11.27 20.26,22.11 15.5,14.34 41.37,36.54 57.84,48.11 34.89,24.51 71.35,45.23 114.39,56.5 0.55,-9.94 7.02,-17.43 9.66,-25.78l10.38 -60.16c6.35,-34.4 6.35,-65.71 6.42,-101.29 0.06,-31.12 -4.93,-6.53 8.13,-41.5 1.16,-3.12 1.44,-4.71 1.93,-6.75l2.11 -7.19c0.12,-0.33 0.33,-0.94 0.62,-1.35 -37.94,-27.83 -47.06,-35.45 -79.23,-75.83 -22.16,-27.81 -30.65,-41.88 -49.4,-67.14 -5.8,-7.8 -10.33,-14.8 -15.81,-23.03l-76.28 -117.96c-84.82,-128.28 -165.5,-280.92 -252.52,-411.43l-31.78 -48.29 -108.12 -149.48c-3.62,-3.14 -9.63,-11.79 -13.31,-16.3l-103.25 -115.7 -39.73 -36.21c-42.09,-40.98 -127.18,-93.27 -184.31,-112.34 -44.3,-14.79 -89.02,-23.12 -133.3,-24.93l-36.58 0c-79.98,3.28 -157.68,28.2 -227.93,75.22 -12.15,8.13 -43.24,30.13 -53.59,40 -30.31,28.92 -36.88,30.86 -70.64,68.85 -28.82,32.43 -37,44.41 -62.5,78.76 -36.44,49.1 -73.46,122.84 -98.67,180.34 -11.51,26.26 -54.72,140.91 -56.45,164.92z"/>
   <path class="fil0" d="M2081.81 423.75l108.12 149.48 58.62 -83.79c19.5,-28.67 65.35,-82.14 92.72,-105.06l28.51 -24.46c3.62,-2.83 6.55,-4.43 10.36,-7.3l22.41 -14.67c49.17,-29.85 106.45,-37 162.19,-25.89 50.92,10.13 91.44,35.83 130.48,67.28 32.17,25.92 69.93,73.09 92.28,107.25 5.27,8.06 9.18,14.62 14.17,22.91 57.78,95.91 91.5,203.95 114.45,318.18 7.32,36.45 14.37,89.27 17.35,127.44 0.68,8.76 2.18,23.64 3.14,32.18 0.65,5.76 0.13,11.66 0.19,17.47 0.09,9.12 1.42,9.71 1.84,17.58 6.15,113.92 -4.79,282.81 -122.26,310.37 -17.72,4.16 -45.9,6.51 -67.51,3 -34.17,-5.55 -39.56,-13.65 -53.92,-18.81 -0.29,0.41 -0.5,1.02 -0.62,1.35l-2.11 7.19c-0.49,2.04 -0.77,3.63 -1.93,6.75 -13.06,34.97 -8.07,10.38 -8.13,41.5 -0.07,35.58 -0.07,66.89 -6.42,101.29l-10.38 60.16c-2.64,8.35 -9.11,15.84 -9.66,25.78 25.32,5.31 55.15,13.45 85.68,14.12l12.82 0c72.46,-0.47 103.88,-3.5 169.56,-30.76 17.37,-7.21 49.45,-27.24 64.58,-39.61 78.6,-64.27 121.7,-152.94 146.18,-270.55 33.23,-159.61 8.41,-399.11 -40.28,-556.32 -44.7,-144.3 -116.04,-293.07 -224.03,-401.06 -32.48,-32.48 -74.88,-69.86 -115.29,-93.07 -62.11,-35.69 -128.98,-60.32 -198.06,-65.41l-52.4 0c-27.76,2.08 -55.77,7.56 -83.87,16.99 -61.08,20.49 -116.28,53.07 -164.01,95.56 -5.61,5 -8.59,6.9 -14.09,12.41 -5.22,5.22 -8.8,6.9 -14.18,12.31 -57.18,57.47 -85.74,88.9 -134.23,153.58 -3.81,5.07 -7.39,11.54 -12.27,14.63z"/>
   <path class="fil0" d="M6535.58 517.34l-206.6 0 0 183.64 206.6 0 0 510.32c0,53.58 9.88,112.1 23.61,152.96 7.44,22.14 15.51,43.19 26.57,61.72 35.05,58.72 75.14,96.61 144.3,122.33 91.9,34.18 217.82,30.41 314.1,5.58 6.93,-1.78 13.32,-4.68 21.15,-5.33l0 -181.88c-8.92,0 -20.45,2.55 -29.49,4.05 -73.52,12.23 -193.48,21.99 -244.48,-40.85 -23.85,-29.36 -38.57,-86.59 -38.57,-139.77l0 -489.13 312.54 0 0 -178.34c0,-4.07 -1.23,-5.3 -5.3,-5.3l-307.24 0 0 -301.95 -217.19 0 0 301.95z"/>
   <path class="fil0" d="M1238.16 761.68c-6.97,1.85 -4.64,3.28 -14.08,3.65 -7.04,0.27 -10.51,-0.96 -16.19,-1.79 -10.57,-1.54 -20.6,-2.34 -31.45,-3.86 -3.1,-0.44 -4.55,-0.57 -7.51,-1.5 -7.34,-2.3 -0.36,-0.06 -6.21,-2.72 -10.58,-4.81 -18.64,-1.37 -31.73,-3.36 -27.08,-4.13 -49.41,7.84 -80.15,-4.78l-49.29 -20.96c-12.91,21.16 -36.74,181.67 -40.34,216.82 -3.23,31.53 -5.14,67.59 -5.58,103.85l0 32.12c0.48,39.63 2.8,77.92 7.17,109.09 7.09,50.74 18.23,96.19 34.69,138.36 14.67,37.61 23.16,51.39 42.82,84.32 6.41,10.74 27.98,39.47 37.59,48.93l11.22 11.74c0.26,0.25 0.63,0.62 0.89,0.86l3.75 3.32c11.12,10.18 14.06,14.75 28.84,25.9 45.23,34.1 93.4,55.14 150.72,66.48 17.12,3.4 34.74,5.71 52.59,6.9l56.65 0c61.68,-4.15 122.79,-22 172.75,-55.44 17.91,-11.98 33.46,-23.29 49.62,-36.9 4.3,-3.62 6.54,-6.9 10.85,-10.34 11.81,-9.42 22.47,-21.1 33.38,-31.96l29.99 -33.57c4.9,-5.03 6.28,-6.95 10.65,-12.31 13.38,-16.43 25.3,-31.09 38.25,-48.28l53.28 -75.63c42.9,-64.35 75.7,-121.95 114.46,-187.47 11.13,-18.81 20.26,-36.67 31.38,-55.15l93.84 -165.74c5,-9.86 10.32,-17.89 15.3,-27.08l17.02 -28.25c-6.21,-16.84 -104.19,-165.33 -114.14,-174.32 -2.64,9.81 -85.81,132.01 -100.57,156.74 -4.19,7.02 -8.08,12.73 -12.46,19.33l-126.08 197.06c-48.43,73.99 -90.58,140.97 -146.07,210.62 -15.15,19.01 -44.6,54.34 -61.57,67.33 -5.72,4.38 -11.13,9.51 -17.24,14.55 -39.16,32.3 -74.43,38.49 -124.09,38.49 -36.29,-0.01 -64.91,-17.04 -90.03,-38.88l-28.32 -37.01c-15.91,-26.56 -27.34,-63.88 -32.71,-96.19 -2.88,-17.32 -6.16,-40.92 -6.05,-59.28 0.11,-21.17 0.09,-42.42 0.01,-63.59 -0.11,-30.81 4.11,-60.84 6.91,-90.22 2.85,-29.86 7.87,-56.25 12.52,-84.59 3.07,-18.69 7.25,-35.23 11.34,-54l13.38 -51.29z"/>
  </g>
 </g>
</svg>
