<?xml version="1.0" encoding="UTF-8"?>
<!DOCTYPE svg PUBLIC "-//W3C//DTD SVG 1.1//EN" "http://www.w3.org/Graphics/SVG/1.1/DTD/svg11.dtd">
<!-- Creator: CorelDRAW -->
<svg xmlns="http://www.w3.org/2000/svg" xml:space="preserve" width="91.44mm" height="16.9332mm" version="1.1" style="shape-rendering:geometricPrecision; text-rendering:geometricPrecision; image-rendering:optimizeQuality; fill-rule:evenodd; clip-rule:evenodd"
viewBox="0 0 9144 1693.32"
 xmlns:xlink="http://www.w3.org/1999/xlink"
 xmlns:xodm="http://www.corel.com/coreldraw/odm/2003">
 <defs>
  <style type="text/css">
   <![CDATA[
    .fil2 {fill:#00F1E9}
    .fil1 {fill:#FE004F}
    .fil0 {fill:white}
   ]]>
  </style>
 </defs>
 <g id="Camada_x0020_1">
  <metadata id="CorelCorpID_0Corel-Layer"/>
  <g id="_1366954930736">
   <path class="fil0" d="M2475.66 1247.82c3.47,-9.98 5.42,-7.79 -4.99,-7.24 -122.46,-49.81 -161.06,-253.84 -8.89,-345.3 58.33,-35.06 92.19,-20.49 156.58,-19.37l1.84 -184c-103.68,14.9 -160.88,24.09 -233.22,74.85 -57.52,40.34 -110.84,95.18 -146.26,166.86 -94.3,190.84 -31.21,347.73 64.85,482.3l35.2 29.23c113.8,41.6 182.5,81.21 330.89,41.85 106.09,-28.14 191.27,-95.13 239.42,-165.65 72.11,-105.61 82.57,-171.37 82.44,-325.69 -0.12,-130.67 -4.94,-271.56 0.74,-401 48.32,23.82 77.8,47.13 137.6,68.26 59.67,21.09 115.15,29.5 184.94,32.49l2.02 -188.79 0.02 -45.84c-40.64,-9.47 -71.24,-8.12 -108.15,-21.75 -58.18,-21.48 -52.11,-28.59 -82.88,-45.67 -64.54,-38.41 -107.1,-108.45 -130.87,-203.56l-169.94 0.74c0,260.68 0,521.43 0,782.19 0,148.06 17.98,227.37 -78.12,308.62 -84.95,71.83 -212.13,47.51 -273.22,-33.53z"/>
   <path class="fil0" d="M5963.91 1308.94l73.69 0c29.59,-16.18 78.33,-22.72 108.3,-38.27 181.93,-94.43 221.88,-332.98 91.47,-473.15 -24.92,-26.79 -42.38,-44.81 -78.95,-66.43 -30.02,-17.74 -69.22,-24.54 -99.14,-41.08l-117.02 0c-60.29,33.25 -100.9,18.91 -181.98,110.92 -42.27,47.97 -76.13,122.83 -72.1,210 11.54,249.54 241.77,278.95 275.73,298.01z"/>
   <path class="fil0" d="M6413.51 567.75l0 733.55 183.39 0 0 -198.67c29.7,-7.92 28.49,-21.46 53.49,-38.2l175.75 244.51 191.03 0c-9.91,-37.11 -206.5,-294.92 -244.51,-366.77 28.24,-42.18 84.09,-80.28 112.85,-108.74 30.86,-30.53 87.31,-80.85 108.74,-112.85 -45.84,0 -91.73,0.21 -137.57,-0.03 -78.98,-0.41 -71.16,-11.15 -112.8,32.37 -33.56,35.06 -112.89,120.58 -146.98,143.4l0 -351.49c-107.94,0 -183.39,-16.42 -183.39,22.92z"/>
   <path class="fil0" d="M4495.58 567.75l0 733.55 183.39 0c0,-166.31 -20.96,-192.13 45.84,-236.87 28.89,19.34 102.81,138.56 133.13,180.16 18.9,25.93 27.81,36.36 42.63,64.35l191.02 0c-8.49,-36.47 -207.53,-311.54 -244.51,-366.77l223.46 -219.72c-47.71,-1.87 -93.6,-1.66 -139.44,-1.9 -71.38,-0.37 -71.29,-11.27 -109.1,28.45 -32.99,34.64 -109.44,117.19 -143.03,139.68l0.27 -275.35c1.37,-83.25 21.14,-68.5 -160.74,-68.5 -17.61,0 -22.92,5.32 -22.92,22.92z"/>
   <path class="fil0" d="M3639.77 567.75c0,181.62 -39.78,145.18 183.39,145.18l0 588.37c110.12,0 191.02,16.95 191.02,-22.92l0 -565.45 145.19 0c11.07,-47.54 44.73,-117.79 45.85,-168.1l-542.53 0c-17.6,0 -22.92,5.32 -22.92,22.92z"/>
   <path class="fil0" d="M5137.44 712.93l183.39 0 0 588.37 183.39 0 0 -588.37 152.83 0c4.53,-204.05 269.33,-168.1 -519.61,-168.1l0 168.1z"/>
   <path class="fil1" d="M2340.77 1445.15c32.88,54.68 169.83,110.64 276.35,115.95l31.12 0c4.22,-0.23 8.37,-0.56 12.42,-0.99 252.79,-27.34 405.97,-223.06 406.28,-464.85 0.19,-147.8 -0.26,-295.65 -0.26,-443.46 87.6,58.67 174.17,99.34 320.93,99.34l0 -236.88c-38.39,0 -39.65,-0.85 -68.79,-7.64l-2.02 188.79c-69.79,-2.99 -125.27,-11.4 -184.94,-32.49 -59.8,-21.13 -89.28,-44.44 -137.6,-68.26 -5.68,129.44 -0.86,270.33 -0.74,401 0.13,154.32 -10.33,220.08 -82.44,325.69 -48.15,70.52 -133.33,137.51 -239.42,165.65 -148.39,39.36 -217.09,-0.25 -330.89,-41.85z"/>
   <path class="fil2" d="M2475.66 1247.82c61.09,81.04 188.27,105.36 273.22,33.53 96.1,-81.25 78.12,-160.56 78.12,-308.62 0,-260.76 0,-521.51 0,-782.19l169.94 -0.74 -1.43 -4.1 2.8 -53.48 -244.91 -0.01 0.01 886.38c0.24,105.11 -11.91,184.77 -121.15,230.36 -65.53,27.35 -92.53,11.67 -156.6,-1.13z"/>
   <path class="fil0" d="M4235.78 812.27l0 489.03 183.39 0 0 -511.95 -160.46 0c-17.61,0 -22.93,5.31 -22.93,22.92z"/>
   <path class="fil2" d="M2305.57 1415.92c-96.06,-134.57 -159.15,-291.46 -64.85,-482.3 35.42,-71.68 88.74,-126.52 146.26,-166.86 72.34,-50.76 129.54,-59.95 233.22,-74.85l3.87 -55.37c-112.32,-0.14 -172.66,-11.27 -291.48,60.57 -114.72,69.37 -191.25,194.81 -205.77,328.4l0 91.81c3.26,29.56 9.76,58.99 19.77,87.8 29.2,84.01 87.81,172.85 158.98,210.8z"/>
   <path class="fil1" d="M2470.67 1240.58c-21.72,-33.54 -37.9,-59.17 -38.87,-115.08 -1.42,-81.75 53.53,-157.26 123.73,-182.52 72.97,-26.26 66.82,-8.45 136.73,-8.45 0,-259.46 25.23,-250.66 -72.06,-242.62l-1.84 184c-64.39,-1.12 -98.25,-15.69 -156.58,19.37 -152.17,91.46 -113.57,295.49 8.89,345.3z"/>
   <path class="fil1" d="M6037.6 1308.94c296.63,0 418.99,-335.69 240.49,-521.71 -49.4,-51.47 -120.79,-97.22 -218.81,-97.22 29.92,16.54 69.12,23.34 99.14,41.08 36.57,21.62 54.03,39.64 78.95,66.43 130.41,140.17 90.46,378.72 -91.47,473.15 -29.97,15.55 -78.71,22.09 -108.3,38.27z"/>
   <path class="fil2" d="M5963.91 1308.94c-33.96,-19.06 -264.19,-48.47 -275.73,-298.01 -4.03,-87.17 29.83,-162.03 72.1,-210 81.08,-92.01 121.69,-77.67 181.98,-110.92 -96.93,0 -165.64,43.39 -214.77,93.38 -186.1,189.43 -58.41,525.55 236.42,525.55z"/>
   <path class="fil0" d="M4319.83 728.22c134.81,0 135.2,-175.75 0,-175.75 -42.3,0 -78.12,42.6 -79.66,85.13 -1.45,40.08 31.37,90.62 79.66,90.62z"/>
   <path class="fil1" d="M3127.81 393.36c-6.82,-27.78 -18.95,-33.72 -30.32,-55.1 -7.19,-13.53 -18.88,-44.12 -23.52,-60.52 -24.49,-86.51 32.62,-92.04 -78.46,-92.04l1.43 4.1c23.77,95.11 66.33,165.15 130.87,203.56z"/>
  </g>
 </g>
</svg>
