<?xml version="1.0" encoding="UTF-8"?>
<!DOCTYPE svg PUBLIC "-//W3C//DTD SVG 1.1//EN" "http://www.w3.org/Graphics/SVG/1.1/DTD/svg11.dtd">
<!-- Creator: CorelDRAW -->
<svg xmlns="http://www.w3.org/2000/svg" xml:space="preserve" width="91.44mm" height="16.9332mm" version="1.1" style="shape-rendering:geometricPrecision; text-rendering:geometricPrecision; image-rendering:optimizeQuality; fill-rule:evenodd; clip-rule:evenodd"
viewBox="0 0 9144 1693.32"
 xmlns:xlink="http://www.w3.org/1999/xlink"
 xmlns:xodm="http://www.corel.com/coreldraw/odm/2003">
 <defs>
  <style type="text/css">
   <![CDATA[
    .fil0 {fill:white}
   ]]>
  </style>
 </defs>
 <g id="Camada_x0020_1">
  <metadata id="CorelCorpID_0Corel-Layer"/>
  <g id="_1367551186656">
   <path class="fil0" d="M1661.99 805.56c0,21.71 -1.97,109.24 0.41,126.64l11.4 193.76c0.94,7.35 1.56,14.35 1.97,20.99 2.52,41.08 14.26,118.71 26.19,155.99 7.88,24.61 16.14,42.26 29.54,62.34 15.27,22.92 33.1,42.26 55.13,58.15 57.9,41.74 124.32,48.13 195.57,55.5 42.81,4.44 84.39,5.86 126.91,9.36l44.37 1.56c9.2,0 11.1,1.54 19.8,1.65 22.16,0.27 44.74,-0.82 67.2,1.69l131.87 4.38c15.34,-0.03 30.68,-0.09 46,-0.07 9.46,0.02 11.86,1.62 21.32,1.65l298.64 -0.03c10.14,0.05 13.19,-1.6 22.87,-1.62 15.32,-0.02 30.66,0.04 45.97,0.07l180.62 -6.18c7.35,-0.23 15.71,0.57 22.92,-0.03 7.76,-0.64 13.03,-1.51 23.08,-1.44 9.85,0.07 13.21,-1.35 21.36,-1.6 30.15,-0.87 81.3,-2.7 109.85,-6.48 12.25,-1.63 30.11,-3.37 43.3,-4.19 49.59,-3.05 109.44,-12.64 152.59,-34.18 10.63,-5.32 19.62,-10.31 28.74,-17.2l28.18 -23.88c0.32,-0.3 1.28,-1.14 1.6,-1.44l7.42 -7.9c12.16,-12.11 21.04,-25.53 29.97,-40.45 23.38,-39.09 33.31,-91.86 40.78,-146.01l10.89 -105.45c0.44,-5.63 0.92,-14.33 1.65,-21.32 3.19,-29.55 5.82,-79.42 5.86,-110.51 0,-9.66 1.65,-12.73 1.61,-22.87l1.51 -105.66c0,-32.54 -1.7,-60.2 -1.51,-91.9 0.04,-9.83 -1.38,-13.22 -1.61,-21.37 -0.22,-7.55 0.32,-15.5 0.1,-23.05l-3.12 -44.35c-4.65,-88.21 -13.35,-247.52 -55.59,-317.97 -37.91,-63.21 -91.55,-99.73 -165.51,-114.65 -51.56,-10.44 -83.43,-9.14 -124.25,-15.07 -26.99,-3.94 -63.78,-3.02 -87.69,-5.7 -7.25,-0.82 -12.27,-1.26 -21.7,-1.26 -9.68,0 -12.73,-1.67 -22.9,-1.63 -16.34,0.1 -27.49,-1.41 -44.48,-1.44 -9.46,0 -11.86,-1.62 -21.32,-1.62 -8.08,-0.03 -16.57,0.34 -24.61,0.09l-44.37 -1.54c-9.8,0.05 -12.5,-1.53 -21.34,-1.62l-116.44 -1.44c-9.8,0.04 -12.5,-1.51 -21.34,-1.63 -100.05,-1.24 -200.13,0.44 -300.18,0.02 -9.8,-0.04 -12.5,1.51 -21.34,1.63 -15.24,0.18 -30.72,-0.05 -45.99,-0.07l-176.29 5.91c-6.74,0.75 -15.78,0.16 -22.78,0.18 -9.48,0 -11.86,1.63 -21.34,1.63 -29.47,0.02 -60.81,4.62 -85.77,4.55l-85.51 6.37c-77.87,8.06 -146.99,14.31 -207.38,65.11 -34.9,29.31 -57.95,65.48 -72.47,109.71 -17.6,53.62 -22.23,119.36 -28.36,176.8 -3.58,33.31 -7.01,72.35 -7.35,105.94l-2.48 43.45c-2.1,13.9 0.6,30.36 -1.53,44.42 -2.13,14.01 -0.64,30.72 -0.64,45.28zm742.53 320.49l361.08 -208.92c19.6,-11.58 39.47,-23.17 60.15,-34.82 10.6,-5.98 54.55,-29.95 59.87,-35.42 -5.7,-5.54 -109.79,-64.2 -120.02,-70.24l-330.4 -191.61c-9.07,-5.41 -20.97,-13.05 -30.68,-17.31l0 558.32z"/>
   <path class="fil0" d="M6403.44 1405.7l153.1 0 18.37 -76.55c3.67,1.33 1.17,-0.01 3.5,2.63 0.42,0.49 2.52,3.93 2.96,4.69 15.1,25.99 29.06,37.76 53.23,53.94 28.25,18.9 63.83,27.54 105.66,27.54 72.04,0 117.76,-45.02 141.95,-106.08 21.96,-55.44 34.11,-137 34.11,-213.9l0 -209.74c0,-69.97 -8.97,-164.83 -28.63,-214.8 -12.68,-32.25 -24.02,-53.24 -48.96,-73.52 -52.03,-42.3 -140.49,-34.75 -194.93,3.54 -18.99,13.36 -36.17,30.54 -49.61,49.91l-13.15 20.53 0 -428.68 -177.6 0 0 1160.49z"/>
   <path class="fil0" d="M4253.94 937.22c0,138.37 -12.36,334.4 76.93,423.7 48.54,48.53 113.71,58.56 181.81,58.56 44.94,0 91.81,-8.35 121.98,-23.46 30.43,-15.23 39.4,-22.86 61.34,-47.36 47.81,-53.38 66.23,-168.84 66.23,-261.41l0 -182.18c0,-110.01 -20.84,-257.26 -127.05,-309.29 -68.93,-33.76 -183.31,-32.34 -252.13,2.07 -75.16,37.58 -104.61,111.32 -118.41,193.91 -7.3,43.72 -10.7,94.62 -10.7,145.46z"/>
   <path class="fil0" d="M6995.93 924.97c0,83.09 -3.32,189.81 8.29,268.82 9.19,62.52 32.77,143.08 82.9,180.43 27.99,20.86 55.78,33.4 92.3,39.36 107.4,17.55 237.84,-9.38 277.13,-106.08 20.32,-50 21.64,-76.28 21.64,-131.45 0,-7.69 -1.37,-6.85 -1.53,-13.78 -14.29,0 -25.42,-0.76 -39.81,-1.52l-99.56 -6.08c-8.7,-0.07 -10.55,-1.58 -19.85,-1.58 0,35.4 -4.01,105.73 -31.45,126.24 -25.69,19.21 -68.83,16.8 -85.84,-5.89 -18.36,-24.51 -22.09,-75.92 -22.03,-108.11l-1.53 -107.17 306.2 0 0 -180.65c0,-62.72 -10.97,-167.4 -42.55,-217.72 -38.46,-61.27 -97.99,-86.95 -174.85,-86.95 -61.23,0 -96.28,0.38 -152.11,28.56 -14.58,7.36 -21.35,14.32 -32.26,22.84 -9.65,7.53 -19.04,19.08 -26,29.12 -5.27,7.59 -9.45,14.54 -13.67,23.07 -37.91,76.57 -45.42,160.33 -45.42,248.54z"/>
   <path class="fil0" d="M5795.64 1192.89c0,114.43 21.49,226.59 162.29,226.59 69.49,0 127.19,-36.23 160.68,-91.93 6.39,-10.63 8.94,-19.65 15.38,-21.37l15.31 99.52 145.44 0 0 -817.55 -185.25 0 0 644.55c0,17.52 -39.91,58.46 -80.39,55.74 -43.36,-2.93 -48.21,-52.19 -48.21,-90.96l0 -609.33 -185.25 0 0 604.74z"/>
   <path class="fil0" d="M4855.62 1165.33c0,70.41 3.29,130.8 26.3,178.85 23.65,49.38 66.36,75.3 135.98,75.3 45.91,0 82.5,-14.8 109.15,-34.76 24.76,-18.55 43.35,-41.81 58.61,-68.47 3.31,-5.78 2.42,-8.5 8.31,-10.07 0,10.13 15.09,89.7 15.31,99.52l145.44 0 0 -817.55 -185.25 0 0 646.08c0,30.44 -98.34,94.25 -120.98,19.93 -5.37,-17.66 -7.62,-41.32 -7.62,-64.33l0 -601.68 -185.25 0 0 577.18z"/>
   <path class="fil0" d="M3909.47 1045.92l0 359.78 182.19 0 0 -356.72c0,-9.5 9.09,-37.73 11.91,-47.79 31.13,-110.8 61.35,-224.18 93.18,-333.97 27.31,-94.19 52.45,-190.72 79.62,-284.75 4.7,-16.26 9.29,-31.38 13.4,-47.84 4.24,-16.94 9.26,-31.34 13.16,-48.08l-183.72 0c-0.44,5.36 -2.16,10.48 -3.44,16.46l-11.56 52.74c-5.37,22.95 -10.51,46.83 -15.23,68.97 -19.64,92.14 -41.47,184.39 -59.97,276.85 -4.67,23.39 -10.06,46.88 -13.9,70.3 -2.33,14.18 -12.25,62.61 -12.25,73.49l-4.59 0c0,-24.15 -33.8,-182.84 -39.7,-211.39l-73.6 -347.42 -183.71 0c0.42,5.13 4.47,18.21 5.94,23.15l111.3 403.11c4.72,16.69 9.02,31.56 13.21,48.02 3.9,15.34 8.74,30.47 12.84,46.87 4.15,16.6 8.67,31.47 13.18,48.06 4.05,14.87 8.29,30.81 12.92,46.79l38.82 143.37z"/>
   <polygon class="fil0" points="5307.26,436.59 5489.45,436.59 5489.45,1405.7 5670.1,1405.7 5670.1,436.59 5852.29,436.59 5852.29,286.55 5307.26,286.55 "/>
   <path class="fil0" d="M5309.57 433.99c24.7,0 170.18,-1.72 181.41,1.06l0.19 970.05 177.97 0 -0.02 -728.15c0,-30.1 -2.89,-230.62 0.98,-242.06 11.4,-2.61 155.86,-0.9 180.47,-0.9l0 -146.09 -540.92 0 -0.08 146.09z"/>
  </g>
 </g>
</svg>
